<svg width="45" height="45" viewBox="0 0 45 45" fill="none" xmlns="http://www.w3.org/2000/svg">
<path d="M42.5819 13.854C41.0969 10.265 38.7053 7.13119 35.6456 4.76494C32.5858 2.39869 28.9646 0.88262 25.143 0.367815C21.3214 -0.146991 17.4328 0.357449 13.8646 1.83086C10.2965 3.30427 7.17347 5.6952 4.80681 8.76537C2.44015 11.8355 0.912497 15.4777 0.376089 19.329C-0.160319 23.1802 0.313254 27.106 1.74961 30.7151C3.18597 34.3242 5.53495 37.4906 8.56246 39.8987C11.59 42.3068 15.1903 43.8726 19.0046 44.4399C18.505 42.6238 17.9967 40.6166 17.5488 38.4878C18.8519 39.3405 20.2235 40.0816 21.6492 40.7035C21.6492 40.7035 21.7526 42.5804 21.8904 44.6745C23.4308 44.7013 24.9698 44.5644 26.4818 44.2661C26.4427 44.0477 26.4427 43.8241 26.4818 43.6057C26.7316 41.9808 27.4208 39.0526 27.5586 37.167C28.552 36.2297 29.3948 35.1421 30.0567 33.9434L30.005 34.3257C29.5312 38.0273 28.5406 41.9808 27.9376 43.0757C27.7424 43.4381 27.5021 43.7739 27.2226 44.0749C30.3408 43.3371 33.2626 41.924 35.7855 39.9336C38.3083 37.9433 40.3718 35.4233 41.8329 32.5484C43.2941 29.6735 44.1179 26.5124 44.2472 23.2843C44.3765 20.0563 43.8083 16.8385 42.5819 13.854ZM41.3156 17.1472C40.9366 17.5208 40.1527 17.7728 40.0235 16.6432C39.8942 15.5136 39.8598 14.7229 39.8598 14.7229C39.8598 14.7229 38.1972 11.7425 37.577 11.7078C36.9568 11.673 32.5549 14.7229 31.3919 16.0524C30.3841 17.1733 30.1859 17.0951 30.1859 19.0675C30.1859 20.5534 30.3755 26.1666 30.2721 30.459L23.2514 32.3446C21.0448 32.9834 18.8007 33.4825 16.5323 33.8391L15.6709 28.7733H15.5503L13.3364 17.3297C13.3364 17.3297 10.0543 16.0784 8.84834 15.7396C8.28208 15.4897 7.65675 15.4084 7.04619 15.5054C6.43563 15.6024 5.86533 15.8736 5.40263 16.287C4.93058 16.7039 4.55313 17.2185 4.29596 17.7958C4.0388 18.373 3.90796 18.9994 3.91236 19.6323C4.09445 20.0362 4.23307 20.4585 4.32584 20.8922C4.36892 21.3093 3.29213 21.2659 2.60299 21.2659C1.91384 21.2659 1.81047 20.0146 2.35317 18.5462C2.77657 17.417 3.30135 16.3292 3.92097 15.2964C4.38702 14.3738 4.98815 13.5273 5.70413 12.7852C5.70413 12.7852 5.82473 12.4898 6.78092 12.5767C7.7371 12.6636 13.0521 12.9503 13.0521 12.9503L13.0952 10.9779C18.8722 10.1733 24.6987 9.78419 30.5305 9.81354C30.5305 10.3436 30.5305 10.8736 30.5305 11.4037C32.7394 10.3869 35.118 9.79736 37.5425 9.66582C37.6723 9.66252 37.8008 9.69175 37.9166 9.75089C38.0323 9.81004 38.1317 9.89725 38.2058 10.0047C38.4987 10.3783 40.2819 12.6115 40.4886 12.933C41.0677 13.7677 41.5942 14.6383 42.065 15.5397C41.9037 16.1104 41.6505 16.6505 41.3156 17.1385V17.1472Z" fill="#FDC305"/>
</svg>
